<mxfile host="app.diagrams.net" modified="2023-10-09T22:24:22.875Z" agent="Mozilla/5.0 (Macintosh; Intel Mac OS X 10_15_7) AppleWebKit/605.1.15 (KHTML, like Gecko) Version/16.6 Safari/605.1.15" etag="9LdmiryhjcWrOKyHplKW" version="22.0.4" type="github">
  <diagram name="Page-1" id="ksZqMuiZQJFRjg6Fnd78">
    <mxGraphModel dx="954" dy="647" grid="1" gridSize="10" guides="1" tooltips="1" connect="1" arrows="1" fold="1" page="1" pageScale="1" pageWidth="850" pageHeight="1100" math="0" shadow="0">
      <root>
        <mxCell id="0" />
        <mxCell id="1" parent="0" />
        <mxCell id="3DGLhHLbl516YDDREPtI-1" value="" style="rounded=1;whiteSpace=wrap;html=1;" vertex="1" parent="1">
          <mxGeometry x="120" y="90" width="120" height="60" as="geometry" />
        </mxCell>
        <mxCell id="3DGLhHLbl516YDDREPtI-2" value="" style="rounded=1;whiteSpace=wrap;html=1;" vertex="1" parent="1">
          <mxGeometry x="280" y="90" width="120" height="60" as="geometry" />
        </mxCell>
        <mxCell id="3DGLhHLbl516YDDREPtI-3" value="" style="rounded=1;whiteSpace=wrap;html=1;" vertex="1" parent="1">
          <mxGeometry x="440" y="90" width="120" height="60" as="geometry" />
        </mxCell>
        <mxCell id="3DGLhHLbl516YDDREPtI-4" value="" style="rounded=1;whiteSpace=wrap;html=1;" vertex="1" parent="1">
          <mxGeometry x="600" y="90" width="120" height="60" as="geometry" />
        </mxCell>
        <mxCell id="3DGLhHLbl516YDDREPtI-5" value="ANDBOUNDS Manager" style="text;strokeColor=none;align=center;fillColor=none;html=1;verticalAlign=middle;whiteSpace=wrap;rounded=0;" vertex="1" parent="1">
          <mxGeometry x="135" y="100" width="90" height="40" as="geometry" />
        </mxCell>
        <mxCell id="3DGLhHLbl516YDDREPtI-6" value="Mailchimp" style="text;strokeColor=none;align=center;fillColor=none;html=1;verticalAlign=middle;whiteSpace=wrap;rounded=0;" vertex="1" parent="1">
          <mxGeometry x="310" y="105" width="60" height="30" as="geometry" />
        </mxCell>
        <mxCell id="3DGLhHLbl516YDDREPtI-7" value="Service #3" style="text;strokeColor=none;align=center;fillColor=none;html=1;verticalAlign=middle;whiteSpace=wrap;rounded=0;" vertex="1" parent="1">
          <mxGeometry x="470" y="105" width="60" height="30" as="geometry" />
        </mxCell>
        <mxCell id="3DGLhHLbl516YDDREPtI-8" value="Service #4" style="text;strokeColor=none;align=center;fillColor=none;html=1;verticalAlign=middle;whiteSpace=wrap;rounded=0;" vertex="1" parent="1">
          <mxGeometry x="630" y="105" width="60" height="30" as="geometry" />
        </mxCell>
        <mxCell id="3DGLhHLbl516YDDREPtI-65" value="" style="edgeStyle=orthogonalEdgeStyle;rounded=0;orthogonalLoop=1;jettySize=auto;html=1;" edge="1" parent="1" source="3DGLhHLbl516YDDREPtI-11">
          <mxGeometry relative="1" as="geometry">
            <mxPoint x="420" y="260" as="targetPoint" />
          </mxGeometry>
        </mxCell>
        <mxCell id="3DGLhHLbl516YDDREPtI-69" value="" style="edgeStyle=orthogonalEdgeStyle;rounded=0;orthogonalLoop=1;jettySize=auto;html=1;" edge="1" parent="1" source="3DGLhHLbl516YDDREPtI-11" target="3DGLhHLbl516YDDREPtI-66">
          <mxGeometry relative="1" as="geometry" />
        </mxCell>
        <mxCell id="3DGLhHLbl516YDDREPtI-11" value="" style="rounded=0;whiteSpace=wrap;html=1;" vertex="1" parent="1">
          <mxGeometry x="360" y="310" width="120" height="60" as="geometry" />
        </mxCell>
        <mxCell id="3DGLhHLbl516YDDREPtI-12" value="Intermediary Tool" style="text;strokeColor=none;align=center;fillColor=none;html=1;verticalAlign=middle;whiteSpace=wrap;rounded=0;" vertex="1" parent="1">
          <mxGeometry x="390" y="325" width="60" height="30" as="geometry" />
        </mxCell>
        <mxCell id="3DGLhHLbl516YDDREPtI-40" value="" style="shape=curlyBracket;whiteSpace=wrap;html=1;rounded=1;labelPosition=left;verticalLabelPosition=middle;align=right;verticalAlign=middle;" vertex="1" parent="1">
          <mxGeometry x="90" y="60" width="20" height="120" as="geometry" />
        </mxCell>
        <mxCell id="3DGLhHLbl516YDDREPtI-41" value="Customer Databases" style="text;strokeColor=none;align=center;fillColor=none;html=1;verticalAlign=middle;whiteSpace=wrap;rounded=0;" vertex="1" parent="1">
          <mxGeometry x="20" y="105" width="60" height="30" as="geometry" />
        </mxCell>
        <mxCell id="3DGLhHLbl516YDDREPtI-58" value="" style="edgeStyle=orthogonalEdgeStyle;rounded=0;orthogonalLoop=1;jettySize=auto;html=1;" edge="1" parent="1" target="3DGLhHLbl516YDDREPtI-3">
          <mxGeometry relative="1" as="geometry">
            <mxPoint x="420" y="210" as="sourcePoint" />
            <Array as="points">
              <mxPoint x="420" y="190" />
              <mxPoint x="500" y="190" />
            </Array>
          </mxGeometry>
        </mxCell>
        <mxCell id="3DGLhHLbl516YDDREPtI-60" value="" style="edgeStyle=orthogonalEdgeStyle;rounded=0;orthogonalLoop=1;jettySize=auto;html=1;entryX=0.5;entryY=1;entryDx=0;entryDy=0;" edge="1" parent="1" source="3DGLhHLbl516YDDREPtI-57" target="3DGLhHLbl516YDDREPtI-1">
          <mxGeometry relative="1" as="geometry">
            <mxPoint x="280" y="235" as="targetPoint" />
          </mxGeometry>
        </mxCell>
        <mxCell id="3DGLhHLbl516YDDREPtI-62" value="" style="edgeStyle=orthogonalEdgeStyle;rounded=0;orthogonalLoop=1;jettySize=auto;html=1;entryX=0.5;entryY=1;entryDx=0;entryDy=0;" edge="1" parent="1" target="3DGLhHLbl516YDDREPtI-2">
          <mxGeometry relative="1" as="geometry">
            <mxPoint x="420" y="210" as="sourcePoint" />
            <mxPoint x="340" y="235" as="targetPoint" />
            <Array as="points">
              <mxPoint x="420" y="190" />
              <mxPoint x="340" y="190" />
            </Array>
          </mxGeometry>
        </mxCell>
        <mxCell id="3DGLhHLbl516YDDREPtI-64" value="" style="edgeStyle=orthogonalEdgeStyle;rounded=0;orthogonalLoop=1;jettySize=auto;html=1;entryX=0.5;entryY=1;entryDx=0;entryDy=0;" edge="1" parent="1" source="3DGLhHLbl516YDDREPtI-57" target="3DGLhHLbl516YDDREPtI-4">
          <mxGeometry relative="1" as="geometry">
            <mxPoint x="560" y="235" as="targetPoint" />
          </mxGeometry>
        </mxCell>
        <mxCell id="3DGLhHLbl516YDDREPtI-57" value="RESTful unified API" style="text;strokeColor=none;align=center;fillColor=none;html=1;verticalAlign=middle;whiteSpace=wrap;rounded=0;" vertex="1" parent="1">
          <mxGeometry x="390" y="220" width="60" height="30" as="geometry" />
        </mxCell>
        <mxCell id="3DGLhHLbl516YDDREPtI-66" value="" style="shape=cylinder3;whiteSpace=wrap;html=1;boundedLbl=1;backgroundOutline=1;size=15;" vertex="1" parent="1">
          <mxGeometry x="380" y="450" width="80" height="100" as="geometry" />
        </mxCell>
        <mxCell id="3DGLhHLbl516YDDREPtI-67" value="Data Warehouse" style="text;strokeColor=none;align=center;fillColor=none;html=1;verticalAlign=middle;whiteSpace=wrap;rounded=0;" vertex="1" parent="1">
          <mxGeometry x="390" y="490" width="60" height="30" as="geometry" />
        </mxCell>
        <mxCell id="3DGLhHLbl516YDDREPtI-68" value="&lt;ul&gt;&lt;li&gt;Securely managed connections and authentication&amp;nbsp;&lt;br&gt;&lt;/li&gt;&lt;/ul&gt;" style="text;strokeColor=none;align=center;fillColor=none;html=1;verticalAlign=middle;whiteSpace=wrap;rounded=0;" vertex="1" parent="1">
          <mxGeometry x="20" y="190" width="160" height="100" as="geometry" />
        </mxCell>
        <mxCell id="3DGLhHLbl516YDDREPtI-70" value="&lt;ul&gt;&lt;li&gt;Scheduling mechanism to initiate &amp;nbsp;data synchronization&lt;/li&gt;&lt;li style=&quot;text-align: left;&quot;&gt;data transformation and normalization to ensure consistency&lt;br&gt;&lt;/li&gt;&lt;/ul&gt;" style="text;strokeColor=none;align=center;fillColor=none;html=1;verticalAlign=middle;whiteSpace=wrap;rounded=0;" vertex="1" parent="1">
          <mxGeometry x="490" y="290" width="340" height="90" as="geometry" />
        </mxCell>
        <mxCell id="3DGLhHLbl516YDDREPtI-71" value="&lt;ul&gt;&lt;li&gt;Data Persistence?&lt;br&gt;&lt;/li&gt;&lt;/ul&gt;" style="text;strokeColor=none;align=left;fillColor=none;html=1;verticalAlign=middle;whiteSpace=wrap;rounded=0;" vertex="1" parent="1">
          <mxGeometry x="490" y="460" width="160" height="30" as="geometry" />
        </mxCell>
      </root>
    </mxGraphModel>
  </diagram>
</mxfile>
